# File created by Blade
# Date/Time:  Wed Jan 21 14:43:43 2015
#---------------------------------------------------------
:version 1.10
:name HOM
:units
  mass 1.0
  length 1.000000
  angle deg
:documentation
     Acclaim Skeleton File
:root
   axis xyz
   order TX TY TZ RX RY RZ
   position 0.000000 0.000000 0.000000
   orientation 0 0 0
:bonedata
   begin
      id 1
      name Spine_dum
      direction 0.000000 1.000000 0.000000
      length 7.067664
      axis 0.0 0.0 0.0 xyz
   end
   begin
      id 2
      name LeftUpLeg_dum
      direction 1.000000 0.000000 0.000000
      length 4.013002
      axis 0.0 0.0 0.0 xyz
   end
   begin
      id 3
      name RightUpLeg_dum
      direction -1.000000 0.000000 0.000000
      length 4.013002
      axis 0.0 0.0 0.0 xyz
   end
   begin
      id 4
      name Spine
      direction 0.000000 1.000000 0.000000
      length 0.000000
      axis 0.0 0.0 0.0 xyz
      dof rx ry rz
   end
   begin
      id 5
      name Spine_dum1
      direction 0.000000 1.000000 0.000000
      length 15.039886
      axis 0.0 0.0 0.0 xyz
   end
   begin
      id 6
      name Spine_dum2
      direction 0.000000 1.000000 0.000000
      length 10.530368
      axis 0.0 0.0 0.0 xyz
   end
   begin
      id 7
      name Spine_dum3
      direction 0.000000 1.000000 0.000000
      length 10.530368
      axis 0.0 0.0 0.0 xyz
   end
   begin
      id 8
      name Head
      direction 0.000000 1.000000 0.000000
      length 4.527550
      axis 0.0 0.0 0.0 xyz
      dof rx ry rz
   end
   begin
      id 9
      name LeftShoulder
      direction 1.000000 0.000000 0.000000
      length 7.028855
      axis 0.0 0.0 -90.0 xyz
      dof rx ry rz
   end
   begin
      id 10
      name LeftArm
      direction 1.000000 0.000000 0.000000
      length 10.797705
      axis 0.0 0.0 -90.0 xyz
      dof rx ry rz
   end
   begin
      id 11
      name LeftForeArm
      direction 1.000000 0.000000 0.000000
      length 7.907442
      axis 0.0 0.0 -90.0 xyz
      dof ry rz rx
   end
   begin
      id 12
      name LeftHand
      direction 0.000000 0.000000 0.000000
      length 0.000000
      axis 0.0 0.0 -90.0 xyz
      dof rx ry rz
   end
   begin
      id 13
      name LeftHand_dum1
      direction 0.000000 0.000000 0.000000
      length 0.000000
      axis 0.0 0.0 -90.0 xyz
   end
   begin
      id 14
      name LeftHand_dum2
      direction 1.000000 0.000000 0.000000
      length 3.937000
      axis 0.0 0.0 -90.0 xyz
   end
   begin
      id 15
      name LeftHandThumb1
      direction 0.000000 0.000000 1.000000
      length 3.937000
      axis 0.0 0.0 -90.0 xyz
      dof rx rz ry
   end
   begin
      id 16
      name RightShoulder
      direction -1.000000 0.000000 0.000000
      length 7.028855
      axis 0.0 0.0 90.0 xyz
      dof rx ry rz
   end
   begin
      id 17
      name RightArm
      direction -1.000000 0.000000 0.000000
      length 10.797705
      axis 0.0 0.0 90.0 xyz
      dof rx ry rz
   end
   begin
      id 18
      name RightForeArm
      direction -1.000000 0.000000 0.000000
      length 7.907442
      axis 0.0 0.0 90.0 xyz
      dof ry rz rx
   end
   begin
      id 19
      name RightHand
      direction 0.000000 0.000000 0.000000
      length 0.000000
      axis 0.0 0.0 90.0 xyz
      dof rx ry rz
   end
   begin
      id 20
      name RightHand_dum1
      direction 0.000000 0.000000 0.000000
      length 0.000000
      axis 0.0 0.0 90.0 xyz
   end
   begin
      id 21
      name RightHand_dum2
      direction -1.000000 0.000000 0.000000
      length 3.937000
      axis 0.0 0.0 90.0 xyz
   end
   begin
      id 22
      name RightHandThumb1
      direction 0.000000 0.000000 1.000000
      length 3.937000
      axis 0.0 0.0 90.0 xyz
      dof rx rz ry
   end
   begin
      id 23
      name LeftUpLeg
      direction 0.000000 -1.000000 0.000000
      length 16.899758
      axis 0.0 0.0 0.0 xyz
      dof rx ry rz
   end
   begin
      id 24
      name LeftLeg
      direction 0.000000 -1.000000 0.000000
      length 17.389183
      axis 0.0 0.0 0.0 xyz
      dof rx ry rz
   end
   begin
      id 25
      name LeftFoot
      direction 0.000000 -0.258819 0.965926
      length 4.924528
      axis 15.0 0.0 0.0 xyz
      dof rx ry rz
   end
   begin
      id 26
      name LeftToeBase
      direction 0.000000 0.000000 1.000000
      length 2.952750
      axis 0.0 0.0 0.0 xyz
      dof rx ry rz
   end
   begin
      id 27
      name RightUpLeg
      direction 0.000000 -1.000000 0.000000
      length 16.899758
      axis 0.0 0.0 0.0 xyz
      dof rx ry rz
   end
   begin
      id 28
      name RightLeg
      direction 0.000000 -1.000000 0.000000
      length 17.389183
      axis 0.0 0.0 0.0 xyz
      dof rx ry rz
   end
   begin
      id 29
      name RightFoot
      direction 0.000000 -0.258819 0.965926
      length 4.924528
      axis 15.0 0.0 0.0 xyz
      dof rx ry rz
   end
   begin
      id 30
      name RightToeBase
      direction 0.000000 0.000000 1.000000
      length 2.952750
      axis 0.0 0.0 0.0 xyz
      dof rx ry rz
   end
:hierarchy
   begin
      root Spine_dum LeftUpLeg_dum RightUpLeg_dum
      Spine_dum Spine
      LeftUpLeg_dum LeftUpLeg
      RightUpLeg_dum RightUpLeg
      Spine Spine_dum1 Spine_dum2 Spine_dum3
      Spine_dum1 Head
      Spine_dum2 LeftShoulder
      Spine_dum3 RightShoulder
      LeftShoulder LeftArm
      LeftArm LeftForeArm
      LeftForeArm LeftHand
      LeftHand LeftHand_dum1 LeftHand_dum2
      LeftHand_dum1 LeftHandThumb1
      RightShoulder RightArm
      RightArm RightForeArm
      RightForeArm RightHand
      RightHand RightHand_dum1 RightHand_dum2
      RightHand_dum1 RightHandThumb1
      LeftUpLeg LeftLeg
      LeftLeg LeftFoot
      LeftFoot LeftToeBase
      RightUpLeg RightLeg
      RightLeg RightFoot
      RightFoot RightToeBase
   end

# File created by Blade
# Date/Time:  Wed Jan 21 14:43:55 2015
# Frame Rate: 120.000 fps
#------------------------------------------------------
:FULLY-SPECIFIED
:DEGREES
171
root 18.887882 35.327333 -21.594481 -174.706754 -1.872420 180.297905
Spine -12.543288 -2.303446 0.522347
Head 6.691833 -0.453260 0.508904
LeftShoulder -16.715901 -7.380651 9.094042
LeftArm 16.817477 68.139034 -17.365100
LeftForeArm 12.871014 -0.000000 114.811655
LeftHand -2.940406 -0.000000 -18.530934
LeftHandThumb1 -26.253704 0.000000 33.147579
RightShoulder -17.612660 -25.325402 0.108780
RightArm 21.081747 -26.578280 17.110027
RightForeArm -30.974568 -0.000000 113.467783
RightHand 5.193106 -0.000000 16.607357
RightHandThumb1 -24.326973 -0.000000 -32.862282
LeftUpLeg 4.043981 9.101895 1.720674
LeftLeg -6.970254 -0.000000 0.000000
LeftFoot -20.744489 28.758585 -11.720256
LeftToeBase 27.353635 -0.000000 -0.000000
RightUpLeg 3.464513 -7.741596 -2.793822
RightLeg -3.533494 -0.000000 0.000000
RightFoot -22.119688 -23.398268 15.360451
RightToeBase 25.537393 -0.000000 -0.000000
172
root 18.893519 35.327975 -21.589091 -174.639062 -1.815209 180.312760
Spine -12.497663 -2.279171 0.499980
Head 6.470270 -0.471526 0.569209
LeftShoulder -16.835841 -7.261191 9.066708
LeftArm 15.529751 68.795826 -18.820478
LeftForeArm 13.460824 -0.000000 114.990897
LeftHand -2.941322 -0.000000 -18.363848
LeftHandThumb1 -26.253704 0.000000 33.147579
RightShoulder -17.626185 -25.527365 0.091198
RightArm 20.901558 -27.518554 17.507096
RightForeArm -31.374561 -0.000000 114.052451
RightHand 5.157506 -0.000000 16.572485
RightHandThumb1 -24.326973 -0.000000 -32.862282
LeftUpLeg 3.978485 9.148714 1.728030
LeftLeg -6.979395 -0.000000 0.000000
LeftFoot -20.741559 28.774215 -11.714142
LeftToeBase 27.407802 -0.000000 -0.000000
RightUpLeg 3.384498 -7.718258 -2.766385
RightLeg -3.550212 -0.000000 0.000000
RightFoot -22.095263 -23.366019 15.345090
RightToeBase 25.584040 -0.000000 -0.000000
173
root 18.898492 35.328275 -21.585036 -174.576936 -1.761994 180.322948
Spine -12.440350 -2.221349 0.462968
Head 6.224090 -0.545472 0.632721
LeftShoulder -16.903630 -7.165253 9.025742
LeftArm 14.018571 69.432118 -20.451184
LeftForeArm 14.170063 0.000000 115.158362
LeftHand -2.934637 -0.000000 -18.130483
LeftHandThumb1 -26.253704 0.000000 33.147579
RightShoulder -17.702644 -25.757141 0.110261
RightArm 20.716748 -28.393358 17.926179
RightForeArm -31.767287 -0.000000 114.547137
RightHand 5.152565 -0.000000 16.594395
RightHandThumb1 -24.326973 -0.000000 -32.862282
LeftUpLeg 3.920453 9.200110 1.729456
LeftLeg -6.987806 -0.000000 0.000000
LeftFoot -20.741219 28.786201 -11.723252
LeftToeBase 27.387334 -0.000000 -0.000000
RightUpLeg 3.309611 -7.701474 -2.745604
RightLeg -3.558133 -0.000000 0.000000
RightFoot -22.076714 -23.352769 15.317915
RightToeBase 25.608933 -0.000000 -0.000000
174
root 18.904149 35.328148 -21.583283 -174.503474 -1.706514 180.335168
Spine -12.410646 -2.164365 0.432951
Head 6.003401 -0.568997 0.690741
LeftShoulder -16.988757 -7.075370 9.011274
LeftArm 12.324728 70.002155 -22.281944
LeftForeArm 14.656910 0.000000 115.296801
LeftHand -2.978268 -0.000000 -17.931036
LeftHandThumb1 -26.253704 0.000000 33.147579
RightShoulder -17.776491 -25.990840 0.109058
RightArm 20.497571 -29.243172 18.419508
RightForeArm -31.987185 -0.000000 114.984113
RightHand 5.189554 -0.000000 16.643541
RightHandThumb1 -24.326973 -0.000000 -32.862282
LeftUpLeg 3.862550 9.263579 1.733780
LeftLeg -7.011702 -0.000000 0.000000
LeftFoot -20.729891 28.786028 -11.729980
LeftToeBase 27.389204 -0.000000 -0.000000
RightUpLeg 3.231232 -7.676485 -2.720494
RightLeg -3.573222 -0.000000 0.000000
RightFoot -22.046257 -23.307857 15.303905
RightToeBase 25.533281 -0.000000 -0.000000
175
root 18.909554 35.328386 -21.578129 -174.419428 -1.662621 180.348050
Spine -12.381477 -2.103235 0.405652
Head 5.744369 -0.617626 0.745343
LeftShoulder -17.065774 -7.006778 9.003415
LeftArm 10.427645 70.500761 -24.333496
LeftForeArm 14.941487 -0.000000 115.387292
LeftHand -3.010418 -0.000000 -17.848098
LeftHandThumb1 -26.253704 0.000000 33.147579
RightShoulder -17.900740 -26.237780 0.136967
RightArm 20.329495 -30.083756 18.849986
RightForeArm -32.080929 -0.000000 115.296340
RightHand 5.290137 -0.000000 16.589679
RightHandThumb1 -24.326973 -0.000000 -32.862282
LeftUpLeg 3.781188 9.292163 1.736318
LeftLeg -7.025046 -0.000000 0.000000
LeftFoot -20.714081 28.810405 -11.705736
LeftToeBase 27.373062 -0.000000 -0.000000
RightUpLeg 3.134174 -7.648678 -2.692303
RightLeg -3.579518 -0.000000 0.000000
RightFoot -22.038514 -23.287950 15.304127
RightToeBase 25.609161 -0.000000 -0.000000
176
root 18.915510 35.327996 -21.574651 -174.343936 -1.618910 180.357637
Spine -12.350885 -2.059474 0.355512
Head 5.493853 -0.713448 0.832468
LeftShoulder -17.152703 -6.913938 9.041452
LeftArm 8.379208 70.934449 -26.560868
LeftForeArm 15.255831 -0.000000 115.437948
LeftHand -3.025154 -0.000000 -17.604251
LeftHandThumb1 -26.253704 0.000000 33.147579
RightShoulder -17.963510 -26.496518 0.158835
RightArm 20.027638 -30.849267 19.437044
RightForeArm -32.021255 -0.000000 115.646527
RightHand 5.243739 -0.000000 16.729672
RightHandThumb1 -24.326973 -0.000000 -32.862282
LeftUpLeg 3.714516 9.321622 1.737514
LeftLeg -7.042831 -0.000000 0.000000
LeftFoot -20.724669 28.825551 -11.729646
LeftToeBase 27.420711 -0.000000 -0.000000
RightUpLeg 3.047002 -7.636406 -2.664458
RightLeg -3.586725 -0.000000 0.000000
RightFoot -22.024635 -23.292140 15.253130
RightToeBase 25.633572 -0.000000 -0.000000
177
root 18.920292 35.328382 -21.569647 -174.269970 -1.599055 180.373594
Spine -12.313027 -2.034091 0.339928
Head 5.250890 -0.758373 0.870200
LeftShoulder -17.228487 -6.875112 9.038792
LeftArm 6.191927 71.358362 -28.867012
LeftForeArm 15.305961 -0.000000 115.512229
LeftHand -3.095275 -0.000000 -17.336572
LeftHandThumb1 -26.253704 0.000000 33.147579
RightShoulder -18.008477 -26.672148 0.161319
RightArm 19.672517 -31.742714 20.020193
RightForeArm -32.121888 -0.000000 116.017371
RightHand 4.940305 -0.000000 16.654473
RightHandThumb1 -24.326973 -0.000000 -32.862282
LeftUpLeg 3.634203 9.317855 1.746380
LeftLeg -7.042996 -0.000000 0.000000
LeftFoot -20.715815 28.857595 -11.708654
LeftToeBase 27.419404 -0.000000 -0.000000
RightUpLeg 2.964143 -7.638020 -2.633537
RightLeg -3.593557 -0.000000 0.000000
RightFoot -22.004297 -23.251948 15.257854
RightToeBase 25.611401 -0.000000 -0.000000
178
root 18.926217 35.328569 -21.565993 -174.180943 -1.570396 180.393294
Spine -12.308115 -1.966737 0.312438
Head 5.032328 -0.815172 0.925800
LeftShoulder -17.275724 -6.785499 9.041111
LeftArm 3.876008 71.693935 -31.313457
LeftForeArm 15.491768 0.000000 115.566469
LeftHand -3.070615 -0.000000 -16.967370
LeftHandThumb1 -26.253704 0.000000 33.147579
RightShoulder -18.128184 -26.843982 0.216741
RightArm 19.344809 -32.615683 20.512977
RightForeArm -32.158636 -0.000000 116.288628
RightHand 4.775904 0.000000 16.534075
RightHandThumb1 -24.326973 -0.000000 -32.862282
LeftUpLeg 3.548195 9.351917 1.757643
LeftLeg -7.056152 -0.000000 0.000000
LeftFoot -20.708581 28.861331 -11.704092
LeftToeBase 27.436964 -0.000000 -0.000000
RightUpLeg 2.869086 -7.616800 -2.596613
RightLeg -3.610062 -0.000000 0.000000
RightFoot -21.970862 -23.218602 15.313485
RightToeBase 25.477284 -0.000000 -0.000000
179
root 18.932708 35.328419 -21.563154 -174.095983 -1.532946 180.406003
Spine -12.295102 -1.914503 0.271015
Head 4.801055 -0.869511 0.994514
LeftShoulder -17.324507 -6.778763 9.066517
LeftArm 1.172040 72.053503 -34.096914
LeftForeArm 15.616188 -0.000000 115.649694
LeftHand -3.004071 0.000000 -16.591147
LeftHandThumb1 -26.253704 0.000000 33.147579
RightShoulder -18.236808 -27.035355 0.253784
RightArm 18.999859 -33.431928 21.144879
RightForeArm -32.358329 0.000000 116.471445
RightHand 4.737533 -0.000000 16.297851
RightHandThumb1 -24.326973 -0.000000 -32.862282
LeftUpLeg 3.470306 9.390087 1.763472
LeftLeg -7.070778 -0.000000 0.000000
LeftFoot -20.706189 28.860915 -11.699909
LeftToeBase 27.443985 -0.000000 -0.000000
RightUpLeg 2.772358 -7.587825 -2.566509
RightLeg -3.606229 -0.000000 0.000000
RightFoot -21.979951 -23.236319 15.253902
RightToeBase 25.631395 -0.000000 -0.000000
180
root 18.938406 35.327637 -21.560643 -174.014824 -1.505670 180.422215
Spine -12.284132 -1.869549 0.234878
Head 4.580963 -0.902627 1.058169
LeftShoulder -17.385928 -6.734646 9.083206
LeftArm -1.309291 72.386178 -36.671659
LeftForeArm 15.632798 -0.000000 115.743050
LeftHand -3.025713 0.000000 -16.179882
LeftHandThumb1 -26.253704 0.000000 33.147579
RightShoulder -18.274316 -27.197776 0.246277
RightArm 18.532451 -34.216588 21.909034
RightForeArm -32.385352 -0.000000 116.648331
RightHand 4.682116 -0.000000 16.237678
RightHandThumb1 -24.326973 -0.000000 -32.862282
LeftUpLeg 3.403520 9.375283 1.773326
LeftLeg -7.100224 -0.000000 0.000000
LeftFoot -20.697576 28.902147 -11.692443
LeftToeBase 27.431460 -0.000000 -0.000000
RightUpLeg 2.684972 -7.575298 -2.533786
RightLeg -3.613781 -0.000000 0.000000
RightFoot -21.970633 -23.221798 15.224958
RightToeBase 25.622179 -0.000000 -0.000000
181
root 18.943648 35.327607 -21.557003 -173.940491 -1.488410 180.435921
Spine -12.266128 -1.814837 0.198248
Head 4.374055 -0.931267 1.111432
LeftShoulder -17.407708 -6.715559 9.103788
LeftArm -4.076691 72.654824 -39.546502
LeftForeArm 15.740297 0.000000 115.817196
LeftHand -2.951512 -0.000000 -15.865057
LeftHandThumb1 -26.253704 0.000000 33.147579
RightShoulder -18.344682 -27.363107 0.236088
RightArm 18.114493 -35.008103 22.658517
RightForeArm -32.528002 -0.000000 116.747915
RightHand 4.720725 -0.000000 16.096758
RightHandThumb1 -24.326973 -0.000000 -32.862282
LeftUpLeg 3.321497 9.411854 1.780156
LeftLeg -7.096001 -0.000000 0.000000
LeftFoot -20.705501 28.893293 -11.703775
LeftToeBase 27.459603 -0.000000 -0.000000
RightUpLeg 2.600125 -7.565741 -2.501983
RightLeg -3.613656 -0.000000 0.000000
RightFoot -21.963700 -23.213089 15.208847
RightToeBase 25.686755 -0.000000 -0.000000
